<mxfile host="app.diagrams.net" modified="2025-01-29T07:56:24.265Z" agent="Mozilla/5.0 (Macintosh; Intel Mac OS X 10_15_7) AppleWebKit/537.36 (KHTML, like Gecko) Chrome/131.0.0.0 Safari/537.36" version="23.1.5" etag="jzi72aVRK49c-N3AKnuE" type="github">
  <diagram name="Page-1" id="YMuiuauPwvMc00C-CMeA">
    <mxGraphModel>
      <root>
        <mxCell id="0" />
        <mxCell id="1" parent="0" />
      </root>
    </mxGraphModel>
  </diagram>
</mxfile>
